<svg viewBox="0 0 170 170" fill="currentColor" xmlns="http://www.w3.org/2000/svg">
    <path d="M150.37 130.25c-2.45 5.66-5.35 10.87-8.71 15.66-4.58 6.53-8.33 11.05-11.22 13.56-4.48 4.12-9.28 6.23-14.42 6.35-3.69 0-8.14-1.05-13.32-3.18-5.19-2.12-9.97-3.17-14.34-3.17-4.58 0-9.49 1.05-14.75 3.17-5.26 2.13-9.5 3.24-12.74 3.35-4.35.13-9.16-1.9-14.42-6.08-3.69-3.04-7.67-7.81-11.96-14.34-5.77-8.91-10.37-18.77-13.8-29.58-3.43-10.81-5.15-21.39-5.15-31.74 0-14.88 3.8-27.42 11.39-37.62 7.6-10.2 17.27-15.39 29.02-15.58 4.35 0 9.29 1.14 14.82 3.42 5.53 2.28 9.38 3.47 11.55 3.56 1.74-.1 5.76-1.35 12.06-3.75 6.3-2.4 11.73-3.48 16.29-3.24 13.59.8 24.32 5.77 32.18 14.92-11.85 7.17-17.67 16.92-17.47 29.24.2 9.68 3.94 17.75 11.22 24.21 7.28 6.46 15.75 10.05 25.41 10.77-2.17 6.41-4.78 12.57-7.84 18.48zM119.22 33.09c0-7.39 2.66-14.41 7.98-21.05 5.32-6.64 11.98-10.98 19.98-13.04.54 1.3.81 2.72.81 4.24 0 7.28-2.77 14.45-8.31 21.51-5.54 7.06-12.35 11.24-20.46 12.54z"/>
</svg>
